<?xml version="1.0" standalone="no"?><!DOCTYPE svg PUBLIC "-//W3C//DTD SVG 1.1//EN" "http://www.w3.org/Graphics/SVG/1.1/DTD/svg11.dtd"><svg t="1509936611688" class="icon" style="" viewBox="0 0 1024 1024" version="1.1" xmlns="http://www.w3.org/2000/svg" p-id="992" xmlns:xlink="http://www.w3.org/1999/xlink" width="200" height="200"><defs><style type="text/css"></style></defs><path d="M953.82016 630.347776c-3.028992 8.598528-7.328768 16.80896-12.900352 24.72448-20.523008 29.218816-49.54624 48.959488-84.82816 48.959488l-120.298496 0-160.0768-0.19456-63.911936 0 0-63.913984 63.911936 0c-0.002048 0 97.4336 0.685056 160.0768 0.685056 64.303104 0 55.99744 0 120.298496 0 15.050752 0 26.778624-6.4512 35.3792-18.666496 3.224576-4.593664 5.668864-9.674752 6.351872-15.341568 0-0.294912 0.294912-0.489472 0.489472-0.782336 0-146.88256 0-297.284608 0-444.069888-0.586752-2.34496-0.97792-4.691968-1.85856-6.841344-5.568512-15.049728-16.319488-24.332288-31.85664-27.949056-0.976896-0.19456-1.856512-0.487424-2.83648-0.782336-235.323392 0-461.851648 0-697.179136 0-1.463296 0.392192-2.929664 0.879616-4.397056 1.271808-16.71168 4.691968-27.16672 15.537152-31.46752 32.54272-0.292864 1.26976-0.879616 2.53952-1.36704 3.80928 0 145.220608 0 251.744256 0 396.964864 0.487424 1.26976 1.0752 44.857344 1.36704 46.127104 3.616768 16.80896 17.298432 30.198784 34.204672 32.835584 3.321856 0.490496-3.028992 0.587776 6.448128 0.587776 3.028992 0 69.779456 0 72.026112 0 2.052096 0 3.61472 0 4.591616 0 7.428096 0.19456 74.07616-0.392192 74.07616-0.392192l0 191.740928 63.913984 0 0 63.910912-63.913984 0 0 63.913984-64.011264 0-0.192512-78.277632c0 0-0.196608-142.193664-0.196608-179.131392-7.91552 0-7.91552-0.09728-10.847232-0.09728l-3.419136 0-3.421184 0-68.604928 0c-19.835904 0-9.478144-0.294912-16.026624-1.369088-42.218496-6.54848-76.813312-41.240576-85.998592-83.751936-1.36704-6.64576-1.465344-8.0128-1.954816-30.978048-0.098304-5.668864-0.195584-11.629568-0.294912-16.320512l-0.487424-1.369088 0-10.944512 0-393.4464 0-11.042816 3.714048-10.457088 0.390144-0.97792c10.457088-37.32992 37.528576-62.739456 74.663936-73.194496l2.541568-0.68608 1.467392-0.488448 8.500224-2.44224 8.696832 0 697.179136 0 8.503296 0 8.208384 2.34496 1.369088 0.392192c35.572736 8.598528 60.589056 30.585856 73.586688 65.180672 2.054144 5.376 3.12832 10.067968 3.811328 13.09696l2.151424 7.91552L959.391744 161.748992l0 440.45312 0 20.230144L953.82016 630.347776 953.82016 630.347776zM447.891456 767.750144l0 63.913984-63.91296 0 0-63.913984L447.891456 767.750144 447.891456 767.750144zM511.804416 703.837184l0 63.913984-63.913984 0 0-63.913984L511.804416 703.837184 511.804416 703.837184zM319.967232 448.088064c-35.277824 0-63.913984-28.635136-63.913984-63.91296 0-35.277824 28.635136-63.913984 63.913984-63.913984 35.377152 0 64.011264 28.635136 64.011264 63.913984C383.978496 419.452928 355.344384 448.088064 319.967232 448.088064L319.967232 448.088064zM511.804416 448.088064c-35.377152 0-63.913984-28.635136-63.913984-63.91296 0-35.277824 28.536832-63.913984 63.913984-63.913984 35.279872 0 63.911936 28.635136 63.911936 63.913984C575.716352 419.452928 547.084288 448.088064 511.804416 448.088064L511.804416 448.088064zM703.542272 448.088064c-35.277824 0-63.913984-28.635136-63.913984-63.91296 0-35.277824 28.63616-63.913984 63.913984-63.913984 35.279872 0 63.913984 28.635136 63.913984 63.913984C767.456256 419.452928 738.822144 448.088064 703.542272 448.088064L703.542272 448.088064z" p-id="993" fill="#8a8a8a"></path></svg>